<svg width="1404" height="814" viewBox="0 0 1404 814" fill="none" xmlns="http://www.w3.org/2000/svg">
<path d="M598.068 272C598.068 272 592.568 281.5 598.068 289.4H482.168V272H598.068Z" fill="#DBDCF1"/>
<path d="M599.968 290C599.968 290.4 599.768 290.8 599.468 291.1C599.168 291.4 598.768 291.6 598.368 291.6H425.968C422.868 291.6 420.268 289.1 420.268 285.9V276.1C420.268 273 422.768 270.4 425.968 270.4H598.368C599.268 270.4 599.968 271.1 599.968 272C599.968 272.9 599.268 273.6 598.368 273.6H491.268C489.168 273.6 487.468 275.3 487.468 277.4V284.7C487.468 286.8 489.168 288.5 491.268 288.5H598.368C599.268 288.4 599.968 289.1 599.968 290Z" fill="#EE504F"/>
<path d="M599.967 289.7C600.067 290.2 599.867 290.8 599.567 291.1C599.267 291.4 598.867 291.6 598.467 291.6H490.367C486.767 291.6 483.867 288.7 483.867 285.1V276.9C483.867 273.3 486.767 270.4 490.367 270.4H598.467C599.267 270.4 599.967 271 600.067 271.8C600.167 272.7 599.467 273.5 598.467 273.5H491.367C489.267 273.5 487.567 275.2 487.567 277.3V284.6C487.567 286.7 489.267 288.4 491.367 288.4H598.467C599.067 288.4 599.767 288.9 599.967 289.7Z" fill="#D34848"/>
<path d="M597.368 325.6C597.368 325.6 591.668 340.1 597.368 352.8H510.268V325.6H597.368Z" fill="#DBDCF1"/>
<path d="M600.468 353.2C600.468 353.8 600.268 354.4 599.868 354.8C599.468 355.2 598.968 355.4 598.368 355.4H414.468C409.668 355.4 405.668 351.5 405.668 346.6V331.4C405.668 326.6 409.568 322.6 414.468 322.6H598.368C599.468 322.6 600.468 323.5 600.468 324.6C600.468 325.8 599.568 326.7 598.468 326.7H520.368C516.468 326.7 513.268 329.9 513.268 333.8V343.9C513.268 347.8 516.468 351 520.368 351H598.368C599.468 351.3 600.468 352.1 600.468 353.2Z" fill="#197A83"/>
<path d="M600.468 353.2C600.468 353.8 600.268 354.4 599.868 354.8C599.468 355.2 598.968 355.4 598.368 355.4H518.468C513.068 355.4 508.668 351 508.668 345.6V332.5C508.668 327.1 513.068 322.7 518.468 322.7H598.368C599.468 322.7 600.468 323.6 600.468 324.7C600.468 325.9 599.568 326.8 598.468 326.8H520.368C516.468 326.8 513.268 330 513.268 333.9V344C513.268 347.9 516.468 351.1 520.368 351.1H598.368C599.468 351.3 600.468 352.1 600.468 353.2Z" fill="#156468"/>
<path d="M590.468 332.1H541.868V332.4H590.468V332.1Z" fill="#373133"/>
<path d="M569.768 332.1L573.368 348.3L577.068 342.4V333.3L569.768 332.1Z" fill="#AFAFD5"/>
<path d="M587.768 336.3V348.3L580.667 343L573.268 348.3V336.3C573.268 333.4 569.768 332.1 569.768 332.1H585.368C587.768 332.8 587.768 335.9 587.768 336.3Z" fill="#6D68E0"/>
<path d="M587.768 336.3H573.368V336.2C573.368 333.3 569.868 332 569.868 332H585.468C587.768 332.8 587.768 335.9 587.768 336.3Z" fill="#5A5ABA"/>
<path d="M414.168 293.1C414.168 293.1 419.968 308.9 414.168 320.8H528.468V293.1H414.168Z" fill="#DBDCF1"/>
<path d="M607.168 301.9V312.3C607.168 318.1 602.468 322.8 596.668 322.8H414.368C413.468 322.8 412.768 322.1 412.768 321.2V321.1C412.768 320.2 413.468 319.5 414.368 319.5H517.968C522.068 319.5 525.468 316.1 525.468 312V302.3C525.468 298.2 522.068 294.8 517.968 294.8H414.368C413.868 294.8 413.468 294.6 413.168 294.3C412.868 294 412.668 293.5 412.668 293C412.768 292.1 413.468 291.5 414.368 291.5H596.668C602.468 291.4 607.168 296.1 607.168 301.9Z" fill="#F1884F"/>
<path d="M530.167 300.9V313.4C530.167 318.6 525.968 322.8 520.768 322.8H414.468C413.568 322.8 412.868 322.1 412.868 321.2V321.1C412.868 320.2 413.568 319.5 414.468 319.5H518.068C522.168 319.5 525.568 316.1 525.568 312V302.3C525.568 298.2 522.168 294.8 518.068 294.8H414.468C413.968 294.8 413.568 294.6 413.268 294.3C412.968 294 412.768 293.5 412.768 293C412.868 292.1 413.568 291.5 414.468 291.5H520.768C525.968 291.4 530.167 295.7 530.167 300.9Z" fill="#D37146"/>
<path d="M479.368 311.6H430.768V311.9H479.368V311.6Z" fill="#373133"/>
<path d="M467.968 311.5H461.768V319.4H467.968V311.5Z" fill="#AFAFD5"/>
<path d="M464.368 318.399V343.499L457.568 337.399L451.068 343.499V319.399L464.368 318.399Z" fill="#A82329"/>
<path d="M467.968 311.5H454.768C454.768 311.5 454.768 317.4 451.068 319.4H464.268C464.268 319.4 467.968 318.4 467.968 311.5Z" fill="#EE504F"/>
<path d="M572.568 240.2C572.568 240.2 568.068 252.9 572.568 266.9H457.968V240.7L572.568 240.2Z" fill="#DBDCF1"/>
<path d="M463.268 236.5H572.768C574.068 236.5 575.068 237.5 575.068 238.8C575.068 240.1 574.068 241.1 572.768 241.1H464.368C461.268 241.1 458.668 243.6 458.668 246.8V260.1C458.668 263.2 461.168 265.8 464.368 265.8H572.768C574.068 265.8 575.068 266.8 575.068 268.1V268.3C575.068 269.6 574.068 270.6 572.768 270.6H463.268C458.768 270.6 455.068 266.9 455.068 262.4V244.9C455.068 240.2 458.768 236.5 463.268 236.5Z" fill="#6D68E0"/>
<path d="M557.968 257.9H509.368V258.2H557.968V257.9Z" fill="#373133"/>
<path d="M542.168 257.9H537.068V265.7H542.168V257.9Z" fill="#AFAFD5"/>
<path d="M540.568 264.8V285.2L546.668 279.1L552.868 285.2V265.8L540.568 264.8Z" fill="#156468"/>
<path d="M537.068 257.9H549.168C549.168 257.9 549.168 263.8 552.868 265.7H540.768C540.768 265.8 537.068 264.8 537.068 257.9Z" fill="#197A83"/>
<path d="M50.0689 254.2C50.0689 254.2 40.8689 386.4 200.569 364.3L209.769 386.3C209.769 386.3 255.169 299.5 180.369 285.3C165.469 282.5 119.769 283.5 119.769 283.5L50.0689 254.2Z" fill="#5CC2AD"/>
<path d="M73.968 500.2C73.968 500.2 55.5681 511.2 22.5681 558.9L9.66797 533.2L53.7681 485.5L73.968 500.2Z" fill="black"/>
<path d="M22.5687 558.9C22.5687 558.9 -14.1313 520.3 6.0687 485.5C6.0687 485.5 24.4686 454.3 57.4686 458C57.4686 458 114.369 395.6 184.169 434.1C184.169 434.1 198.869 516.7 59.3687 509.4C59.2687 509.3 13.3687 509.3 22.5687 558.9Z" fill="#5CC2AD"/>
<path d="M21.068 559.2C13.368 524.6 23.3679 498.5 33.1679 482.8C43.7679 465.8 55.968 457 56.568 456.7L58.268 459.2C58.168 459.3 45.9679 468 35.6679 484.6C26.2679 499.8 16.5679 525.1 23.9679 558.6L21.068 559.2Z" fill="#17311D"/>
<path d="M252.969 453.4C252.969 453.4 265.869 411.2 306.169 414.8C306.169 414.8 328.369 382.3 370.469 411.1C385.169 421.2 397.969 433.1 392.469 479C392.469 479 378.669 456.1 342.869 455.1C318.569 454.6 252.969 453.4 252.969 453.4Z" fill="#5CC2AD"/>
<path d="M391.069 479.5C379.369 444.5 356.769 429.3 339.769 422.7C321.369 415.6 305.669 416.7 305.469 416.7L305.269 413.7C305.969 413.6 321.869 412.5 340.869 419.8C358.369 426.6 381.869 442.3 393.869 478.4L391.069 479.5Z" fill="#17311D"/>
<path d="M217.168 540.601H156.568C143.668 540.601 132.268 547.101 124.668 553.001C118.168 558.001 114.368 562.601 114.368 562.601C113.168 547.701 119.468 533.701 128.168 523.901C132.368 519.201 137.168 515.501 141.868 513.101C198.968 484.501 217.168 540.601 217.168 540.601Z" fill="#197A83"/>
<path d="M193.269 540.701C186.269 504.401 157.969 507.801 157.769 507.901L157.469 505.901C157.769 505.901 187.869 502.201 195.269 540.301L193.269 540.701Z" fill="#020403"/>
<path d="M195.704 535.12L190.771 535.94L207.499 636.563L212.432 635.743L195.704 535.12Z" fill="#22452A"/>
<path d="M225.169 638.2L220.169 637.5C228.069 582.4 226.469 551.2 223.869 528C219.369 487.8 206.569 465.1 196.569 453C185.869 440 176.069 436.5 175.969 436.4L177.669 431.7C178.069 431.9 188.569 435.6 200.169 449.5C210.669 462.1 224.169 485.8 228.869 527.4C231.469 551 233.069 582.5 225.169 638.2Z" fill="#5CC2AD"/>
<path d="M224.768 532C217.568 439.1 204.768 364.5 204.568 363.8L209.468 362.9C209.568 363.6 222.468 438.4 229.668 531.6L224.768 532Z" fill="#5CC2AD"/>
<path d="M248.068 643L243.168 642C273.968 497.1 274.368 442.9 274.368 442.4H279.368C279.268 442.9 278.968 497.5 248.068 643Z" fill="#5CC2AD"/>
<path d="M209.268 385.7C209.168 385.1 199.668 325.7 158.668 306.1C147.468 300.7 114.868 284.2 114.568 284.1L115.968 281.4C116.268 281.6 148.868 298.1 159.968 303.4C202.368 323.7 212.068 384.7 212.168 385.3L209.268 385.7Z" fill="#17311D"/>
<path d="M124.668 553C118.168 558 114.368 562.6 114.368 562.6C113.168 547.7 119.468 533.7 128.168 523.9C126.368 530.9 123.868 542.6 124.668 553Z" fill="#020403"/>
<path d="M139.168 627.8H315.368L289.668 809.5H164.868L139.168 627.8Z" fill="#197A83"/>
<path d="M430.569 367.2L309.069 809.4H285.769L407.369 367.2H430.569Z" fill="#AFAFD5"/>
<path d="M407.369 367.2L528.869 809.4H552.169L430.569 367.2H407.369Z" fill="#AFAFD5"/>
<path d="M1145.07 367.2H928.469V809.4H1145.07V367.2Z" fill="#AFAFD5"/>
<path d="M506.869 367.2L628.469 809.4H651.669L530.169 367.2H506.869Z" fill="#AFAFD5"/>
<path d="M515.969 367.2L637.469 809.4H660.769L539.169 367.2H515.969Z" fill="#DBDCF1"/>
<path d="M530.169 367.2L408.569 809.4H385.369L506.869 367.2H530.169Z" fill="#AFAFD5"/>
<path d="M539.169 367.2L417.669 809.4H394.369L515.969 367.2H539.169Z" fill="#DBDCF1"/>
<path d="M460.369 355.601V378.801H1140.47V809.401H1335.77V355.601H460.369Z" fill="#DBDCF1"/>
<path d="M490.069 355.601H338.769V378.901H490.069V355.601Z" fill="#AFAFD5"/>
<path d="M1154.77 389.2V796.5H1325.47V389.2H1154.77ZM1320.27 791.3H1159.97V715.7H1211.67V729.3H1273.57V715.7H1320.37V791.3H1320.27ZM1320.27 710.5H1159.97V630.3H1211.67V643.9H1273.57V630.3H1320.37V710.5H1320.27ZM1320.27 625.2H1159.97V551.9H1211.67V565H1273.57V551.9H1320.37V625.2H1320.27ZM1320.27 546.7H1159.97V473.9H1211.67V487.5H1273.57V473.9H1320.37V546.7H1320.27ZM1320.27 468.7H1159.97V394.3H1211.67V407.2H1273.57V394.3H1320.37V468.7H1320.27Z" fill="#AFAFD5"/>
<path d="M712.269 275L700.269 356H759.269L771.269 275H712.269Z" fill="#373133"/>
<path d="M577.769 95.9L589.869 274.1C590.369 281.7 596.669 287.6 604.269 287.6H882.969C891.369 287.6 897.969 280.5 897.369 272.2L885.269 94C884.769 86.4 878.469 80.5 870.869 80.5H592.169C583.869 80.5 577.269 87.6 577.769 95.9Z" fill="#373133"/>
<path d="M723.269 275L711.269 356H770.269L782.269 275H723.269Z" fill="#1F3986"/>
<path d="M895.069 287.7H616.369C608.769 287.7 602.469 281.8 601.969 274.2L600.469 252.5L589.769 96C589.169 87.6 595.869 80.5 604.169 80.5H882.869C890.469 80.5 896.769 86.4 897.269 94L908.069 252.5L909.369 272.2C910.069 280.6 903.469 287.7 895.069 287.7Z" fill="#1F3986"/>
<path d="M615.469 251.4L605.869 108.8C605.369 101.6 611.369 95.5 618.869 95.5H870.769C877.669 95.5 883.369 100.6 883.769 107.1L893.469 251.4H615.469Z" fill="white"/>
<path d="M688.769 344H622.269V356H688.769V344Z" fill="#373133"/>
<path d="M862.769 344H685.269V356H862.769V344Z" fill="#1F3986"/>
<path d="M673.168 268.6H631.769V295.6C631.769 295.6 631.769 306.2 642.369 307.2H684.769C684.769 307.2 675.568 306.7 673.668 296.1L673.168 268.6Z" fill="#FC2B45"/>
<path d="M724.168 257.6H682.769V284.6C682.769 284.6 682.769 295.2 693.369 296.2H735.769C735.769 296.2 726.568 295.7 724.668 285.1L724.168 257.6Z" fill="#FD9E28"/>
<path d="M668.46 95.2563L661.474 95.7041L671.472 251.691L678.458 251.244L668.46 95.2563Z" fill="#DBDCF1"/>
<path d="M813.467 95.2573L806.481 95.7051L816.48 251.692L823.466 251.245L813.467 95.2573Z" fill="#DBDCF1"/>
<path d="M682.769 124.5L685.769 168.5H797.769L794.769 124.5H682.769Z" fill="#DBDCF1"/>
<path d="M823.769 126.1L825.068 144.5H871.769L870.469 126.1H823.769Z" fill="#DBDCF1"/>
<path d="M826.769 165.1L828.068 183.5H874.769L873.469 165.1H826.769Z" fill="#DBDCF1"/>
<path d="M829.769 204.1L831.068 222.5H877.769L876.469 204.1H829.769Z" fill="#DBDCF1"/>
<path d="M686.769 188.5L689.769 232.5H801.769L798.769 188.5H686.769Z" fill="#DBDCF1"/>
<path d="M723.769 108H682.769V113H723.769V108Z" fill="#DBDCF1"/>
<path d="M654.769 108.5H613.769V113.5H654.769V108.5Z" fill="#DBDCF1"/>
<path d="M655.769 122.5H614.769V127.5H655.769V122.5Z" fill="#DBDCF1"/>
<path d="M656.769 136.5H615.769V141.5H656.769V136.5Z" fill="#DBDCF1"/>
<path d="M657.769 150.5H616.769V155.5H657.769V150.5Z" fill="#DBDCF1"/>
<path d="M658.769 164.5H617.769V169.5H658.769V164.5Z" fill="#DBDCF1"/>
<path d="M848.769 109.5H822.769V114.5H848.769V109.5Z" fill="#DBDCF1"/>
<path d="M1060.67 157L1060.77 128.1C1060.77 128.1 1013.37 140.3 1035.87 50.8003C1035.87 50.8003 1066.17 19.0003 1103.87 50.8003L1107.87 115.8L1113.27 154.1L1060.67 157Z" fill="#FCBB9D"/>
<path d="M1128.37 51.2004C1132.27 14.8004 1112.17 19.1004 1112.17 19.1004C1091.97 -9.79963 1081.77 7.40036 1081.77 7.40036C1064.77 -7.79964 1059.47 6.90036 1059.47 6.90036C1042.77 0.000362396 1039.77 14.8004 1039.77 14.8004C1024.07 11.8004 1024.97 26.6004 1024.97 26.6004C1019.07 27.6004 1017.87 35.3004 1018.07 38.4004C1019.47 58.2004 1033.57 59.7004 1041.37 59.0004L1043.17 83.1004C1043.37 85.4004 1045.57 86.9004 1047.77 86.2004C1049.07 85.8004 1049.97 84.7004 1050.27 83.4004C1050.37 83.1004 1050.37 82.8004 1050.37 82.6004C1052.07 74.0004 1065.97 67.4004 1067.97 82.6004C1067.97 82.6004 1069.47 102.2 1059.17 102.6C1059.17 102.6 1070.27 126 1096.67 121.1C1101.07 120.3 1129.97 113 1127.67 62.7004C1128.57 56.0004 1128.37 51.2004 1128.37 51.2004Z" fill="#373133"/>
<path d="M1017.77 280.5L979.169 318.3C975.669 321.7 971.269 324 966.469 324.9L841.269 349L808.269 351C808.269 351 814.269 343 822.269 341H800.269L778.369 350.5C775.769 351.6 772.769 350.6 771.469 348.1C770.269 345.8 770.869 342.9 772.969 341.2L796.269 323.5C800.069 320.6 804.869 319.2 809.669 319.7L840.669 322.6L852.069 326.7L952.769 280.5L1000.27 233L1017.77 280.5Z" fill="#CC8772"/>
<path d="M796.769 720.9L776.668 765.6L768.168 784.5H730.568L740.168 756.6L752.269 721.5L796.769 720.9Z" fill="#FCBB9D"/>
<path d="M773.969 771.7C770.669 775.1 757.268 786.4 735.168 771C734.968 770.9 734.769 770.8 734.469 771L673.369 803.7C670.469 805.2 671.569 809.6 674.869 809.6H774.568C779.168 809.6 782.568 805.3 781.568 800.9L775.068 772.2C774.968 771.5 774.369 771.3 773.969 771.7Z" fill="#4F216C"/>
<path d="M944.769 720.9L930.869 765.9L925.168 784.5H887.568L892.668 758.6L900.269 720.5L944.769 720.9Z" fill="#FCBB9D"/>
<path d="M944.768 720.9L930.868 765.9L892.668 758.6L900.268 720.5L944.768 720.9Z" fill="#E6A68A"/>
<path d="M928.969 771.7C925.669 775.1 912.268 786.4 890.168 771C889.968 770.9 889.769 770.8 889.469 771L828.369 803.7C825.469 805.2 826.569 809.6 829.869 809.6H929.568C934.168 809.6 937.568 805.3 936.568 800.9L930.068 772.2C929.968 771.5 929.369 771.3 928.969 771.7Z" fill="#4F216C"/>
<path d="M932.269 464L886.769 751.5L952.769 755.5L1028.27 464H932.269Z" fill="#311547"/>
<path d="M796.768 720.9L776.668 765.6L740.168 756.6L752.268 721.5L796.768 720.9Z" fill="#E6A68A"/>
<path d="M992.769 287.501L969.969 306.701L958.769 316.101C956.069 318.401 952.869 319.901 949.469 320.701L795.769 355.501C783.569 357.601 771.169 352.501 762.269 347.301C759.269 346.801 756.368 346.401 753.568 346.001C748.868 355.901 735.769 359.601 735.769 359.601L741.369 339.301C742.169 336.501 743.969 334.201 746.469 332.801L766.168 321.601C771.068 318.801 776.969 318.701 781.969 321.101L789.168 324.601L925.269 277.801L945.769 255.201L956.969 242.801L992.769 287.501Z" fill="#FCBB9D"/>
<path d="M992.769 287.5L969.969 306.7L945.769 255.4L956.969 243L992.769 287.5Z" fill="#E6A68A"/>
<path d="M1018.07 388L1007.07 402L901.568 414.7C874.768 417.9 852.069 435.9 842.769 461.2L737.769 745.5L808.769 756.5L919.969 516.8C919.969 516.8 1190.27 560.7 1160.27 419.9L1018.07 388Z" fill="#4F216C"/>
<path d="M1040.77 149.9C1040.07 150.1 1016.87 159.9 1003.87 177.1C981.668 206.5 949.168 249.2 949.168 249.2L984.968 297.5L1001.27 281.3L999.268 364.3L987.768 402.5C987.768 402.5 1006.57 416.9 1022.77 424.5C1086.77 454.5 1172.77 442.5 1172.77 442.5L1162.37 242.2C1162.37 242.2 1165.07 171.5 1136.77 149.5C1136.77 149.5 1102.67 132 1040.77 149.9Z" fill="#F1884F"/>
<path d="M1016.94 268.502L983.929 296.521L985.87 298.809L1018.88 270.789L1016.94 268.502Z" fill="#373133"/>
<path d="M1065.27 617.601H1047.97V736.901H1065.27V617.601Z" fill="#DBDCF1"/>
<path d="M1033.87 556.2V606.2C1033.87 618.8 1044.07 629 1056.67 629C1069.27 629 1079.47 618.8 1079.47 606.2V556.2H1033.87Z" fill="#DBDCF1"/>
<path d="M985.168 540.101V544.101C985.168 553.401 992.668 560.901 1001.97 560.901H1134.27C1143.57 560.901 1151.07 553.401 1151.07 544.101V540.101H985.168Z" fill="#DBDCF1"/>
<path d="M1047.57 516.7V546.8H1173.17C1181.47 546.8 1188.17 540.1 1188.17 531.8C1188.17 523.5 1181.47 516.8 1173.17 516.8H1047.57V516.7Z" fill="#D34848"/>
<path d="M940.568 531.7C940.568 540 947.268 546.7 955.568 546.7H1044.97C1053.27 546.7 1059.97 540 1059.97 531.7C1059.97 523.4 1053.27 516.7 1044.97 516.7H955.568C947.268 516.7 940.568 523.4 940.568 531.7Z" fill="#EE504F"/>
<path d="M940.668 766.3L1023.97 743.9V743.6C1023.97 725.7 1038.47 711.2 1056.37 711.2C1074.27 711.2 1088.77 725.7 1088.77 743.6V745.2L1167.17 766.2C1172.07 767.5 1175.07 772.4 1173.97 777.4C1172.87 782.4 1167.97 785.6 1162.97 784.6L1081.87 769H1055.77H1052.27H1026.07L944.969 784.6C939.969 785.6 935.069 782.4 933.969 777.4C932.869 772.5 935.768 767.6 940.668 766.3Z" fill="#DBDCF1"/>
<path d="M1147.97 809.5C1156.31 809.5 1163.07 802.739 1163.07 794.4C1163.07 786.06 1156.31 779.3 1147.97 779.3C1139.63 779.3 1132.87 786.06 1132.87 794.4C1132.87 802.739 1139.63 809.5 1147.97 809.5Z" fill="#373133"/>
<path d="M1147.97 802.8C1152.61 802.8 1156.37 799.039 1156.37 794.4C1156.37 789.761 1152.61 786 1147.97 786C1143.33 786 1139.57 789.761 1139.57 794.4C1139.57 799.039 1143.33 802.8 1147.97 802.8Z" fill="#AFAFD5"/>
<path d="M960.268 809.5C968.608 809.5 975.368 802.739 975.368 794.4C975.368 786.06 968.608 779.3 960.268 779.3C951.929 779.3 945.168 786.06 945.168 794.4C945.168 802.739 951.929 809.5 960.268 809.5Z" fill="#373133"/>
<path d="M960.269 802.8C964.908 802.8 968.669 799.039 968.669 794.4C968.669 789.761 964.908 786 960.269 786C955.63 786 951.869 789.761 951.869 794.4C951.869 799.039 955.63 802.8 960.269 802.8Z" fill="#AFAFD5"/>
<path d="M1403.77 809H49.7686V814H1403.77V809Z" fill="#373133"/>
</svg>
